<svg width="46" height="48" viewBox="0 0 46 48" fill="none" xmlns="http://www.w3.org/2000/svg">
<path d="M23.5331 0.185003C23.29 0.0633423 23.0219 0 22.75 0C22.4781 0 22.21 0.0633423 21.9669 0.185003C21.07 0.633441 1.02089e-06 11.3391 1.02089e-06 26.2491C-0.000795036 28.1991 0.463974 30.1212 1.35566 31.8555C2.24734 33.5897 3.54018 35.0861 5.12665 36.22C6.71313 37.354 8.5474 38.0928 10.4769 38.3751C12.4065 38.6573 14.3755 38.4748 16.2203 37.8428L14.0744 44.9959C13.9959 45.2572 13.9797 45.5332 14.0269 45.8019C14.0741 46.0706 14.1835 46.3245 14.3463 46.5434C14.509 46.7623 14.7208 46.9401 14.9645 47.0626C15.2082 47.1851 15.4772 47.249 15.75 47.2491H29.75C30.0228 47.249 30.2918 47.1851 30.5355 47.0626C30.7793 46.9401 30.991 46.7623 31.1538 46.5434C31.3165 46.3245 31.4259 46.0706 31.4731 45.8019C31.5203 45.5332 31.5041 45.2572 31.4256 44.9959L29.2797 37.8428C31.1245 38.4748 33.0935 38.6573 35.0231 38.3751C36.9526 38.0928 38.7869 37.354 40.3733 36.22C41.9598 35.0861 43.2527 33.5897 44.1443 31.8555C45.036 30.1212 45.5008 28.1991 45.5 26.2491C45.5 11.3391 24.43 0.633441 23.5331 0.185003ZM33.25 34.9991C31.1357 34.9993 29.0928 34.2338 27.4991 32.8444C27.2131 32.595 26.8537 32.4453 26.4752 32.4179C26.0967 32.3905 25.7196 32.4869 25.4006 32.6925C25.0817 32.8982 24.8382 33.2019 24.7069 33.558C24.5757 33.914 24.5637 34.3031 24.6728 34.6666L27.3984 43.7491H18.1016L20.8272 34.6666C20.9363 34.3031 20.9243 33.914 20.7931 33.558C20.6618 33.2019 20.4183 32.8982 20.0994 32.6925C19.7804 32.4869 19.4033 32.3905 19.0248 32.4179C18.6463 32.4453 18.287 32.595 18.0009 32.8444C16.7349 33.9484 15.1778 34.6647 13.5156 34.9077C11.8535 35.1507 10.1565 34.9101 8.62741 34.2146C7.09831 33.5192 5.80172 32.3982 4.8925 30.9857C3.98328 29.5733 3.49987 27.9289 3.5 26.2491C3.5 19.7128 8.83969 13.8788 13.3197 10.1359C16.2565 7.71153 19.4137 5.56719 22.75 3.73094C26.0863 5.56719 29.2435 7.71153 32.1803 10.1359C40.2959 16.9172 42 22.6419 42 26.2491C42 28.5697 41.0781 30.7953 39.4372 32.4362C37.7962 34.0772 35.5706 34.9991 33.25 34.9991Z" fill="white" fill-opacity="0.5"/>
</svg>
