<svg width="49" height="48" viewBox="0 0 49 48" fill="none" xmlns="http://www.w3.org/2000/svg">
<path d="M36.744 15.7468C36.5734 15.7468 36.4028 15.7468 36.2344 15.7468C36.7789 13.9185 36.8889 11.9884 36.5557 10.1101C36.2224 8.23175 35.4551 6.45724 34.3149 4.92788C33.1747 3.39853 31.693 2.15661 29.988 1.30106C28.283 0.445519 26.4017 0 24.494 0C22.5864 0 20.7051 0.445519 19.0001 1.30106C17.2951 2.15661 15.8134 3.39853 14.6732 4.92788C13.533 6.45724 12.7657 8.23175 12.4324 10.1101C12.0992 11.9884 12.2092 13.9185 12.7537 15.7468C12.5831 15.7468 12.4147 15.7468 12.244 15.7468C10.4018 15.7477 8.58341 16.1641 6.92434 16.965C5.26527 17.766 3.80821 18.9308 2.66163 20.3728C1.51505 21.8148 0.708483 23.4968 0.301961 25.2937C-0.104562 27.0905 -0.100567 28.956 0.313651 30.7511C0.727869 32.5462 1.54164 34.2248 2.69439 35.6618C3.84713 37.0989 5.30917 38.2575 6.97165 39.0513C8.63414 39.8451 10.4543 40.2537 12.2965 40.2467C14.1388 40.2397 15.9558 39.8173 17.6122 39.0109L15.8184 44.9937C15.74 45.2549 15.7237 45.5309 15.7709 45.7996C15.8181 46.0683 15.9275 46.3222 16.0903 46.5411C16.2531 46.76 16.4648 46.9378 16.7085 47.0603C16.9523 47.1829 17.2213 47.2467 17.494 47.2468H31.494C31.7668 47.2467 32.0358 47.1829 32.2796 47.0603C32.5233 46.9378 32.735 46.76 32.8978 46.5411C33.0606 46.3222 33.17 46.0683 33.2172 45.7996C33.2644 45.5309 33.2481 45.2549 33.1697 44.9937L31.3759 39.0109C33.0323 39.8173 34.8493 40.2397 36.6916 40.2467C38.5338 40.2537 40.354 39.8451 42.0164 39.0513C43.6789 38.2575 45.141 37.0989 46.2937 35.6618C47.4465 34.2248 48.2602 32.5462 48.6744 30.7511C49.0887 28.956 49.0927 27.0905 48.6861 25.2937C48.2796 23.4968 47.473 21.8148 46.3265 20.3728C45.1799 18.9308 43.7228 17.766 42.0638 16.965C40.4047 16.1641 38.5863 15.7477 36.744 15.7468ZM36.744 36.7468C35.2954 36.7466 33.8696 36.3867 32.5944 35.6994C31.3192 35.0122 30.2345 34.0191 29.4378 32.8093C29.2057 32.4602 28.8561 32.2061 28.4524 32.093C28.0488 31.98 27.618 32.0156 27.2384 32.1933C26.8588 32.3711 26.5556 32.6792 26.3839 33.0616C26.2123 33.444 26.1836 33.8753 26.3031 34.2771L29.1469 43.7402H19.85L22.6937 34.2771C22.8207 33.8725 22.7965 33.4356 22.6256 33.0476C22.4547 32.6595 22.1487 32.3467 21.7645 32.1673C21.3803 31.9879 20.944 31.9541 20.5367 32.0722C20.1295 32.1902 19.7789 32.4522 19.5503 32.8093C18.6461 34.1788 17.375 35.2664 15.8822 35.9479C14.3894 36.6294 12.735 36.8774 11.108 36.6636C9.48091 36.4497 7.9468 35.7826 6.68081 34.7384C5.41482 33.6943 4.46798 32.3151 3.94841 30.7585C3.42885 29.2019 3.35749 27.5305 3.74251 25.9353C4.12752 24.3401 4.95337 22.8853 6.12577 21.737C7.29816 20.5887 8.76983 19.7933 10.3727 19.4416C11.9756 19.0898 13.6451 19.1959 15.1906 19.7477C15.5377 19.8718 15.915 19.8832 16.2689 19.7801C16.6228 19.6771 16.9351 19.465 17.1613 19.174C17.3875 18.8831 17.5161 18.5281 17.5287 18.1598C17.5414 17.7914 17.4373 17.4285 17.2315 17.1227C16.3467 15.806 15.8364 14.2734 15.7555 12.6889C15.6745 11.1045 16.0258 9.52791 16.7718 8.12777C17.5178 6.72763 18.6305 5.55666 19.9907 4.74015C21.3509 3.92363 22.9076 3.4923 24.494 3.4923C26.0805 3.4923 27.6372 3.92363 28.9974 4.74015C30.3576 5.55666 31.4703 6.72763 32.2163 8.12777C32.9623 9.52791 33.3136 11.1045 33.2326 12.6889C33.1517 14.2734 32.6414 15.806 31.7565 17.1227C31.5508 17.4285 31.4467 17.7914 31.4594 18.1598C31.472 18.5281 31.6005 18.8831 31.8268 19.174C32.053 19.465 32.3653 19.6771 32.7192 19.7801C33.0731 19.8832 33.4504 19.8718 33.7975 19.7477C34.9978 19.3232 36.2762 19.1656 37.5437 19.2861C38.8111 19.4066 40.037 19.8023 41.1358 20.4454C42.2345 21.0886 43.1797 21.9638 43.9053 23.0099C44.6309 24.0561 45.1195 25.248 45.3369 26.5024C45.5544 27.7569 45.4954 29.0437 45.1642 30.273C44.8331 31.5023 44.2376 32.6446 43.4194 33.62C42.6012 34.5955 41.58 35.3806 40.4271 35.9206C39.2741 36.4607 38.0172 36.7426 36.744 36.7468Z" fill="white" fill-opacity="0.5"/>
</svg>
