<svg width="42" height="42" viewBox="0 0 42 42" fill="none" xmlns="http://www.w3.org/2000/svg">
<path d="M35 0H7C5.14348 0 3.36301 0.737498 2.05025 2.05025C0.737498 3.36301 0 5.14348 0 7V35C0 36.8565 0.737498 38.637 2.05025 39.9497C3.36301 41.2625 5.14348 42 7 42H35C36.8565 42 38.637 41.2625 39.9497 39.9497C41.2625 38.637 42 36.8565 42 35V7C42 5.14348 41.2625 3.36301 39.9497 2.05025C38.637 0.737498 36.8565 0 35 0ZM38.5 35C38.5 35.9283 38.1312 36.8185 37.4749 37.4749C36.8185 38.1312 35.9283 38.5 35 38.5H7C6.07174 38.5 5.1815 38.1312 4.52513 37.4749C3.86875 36.8185 3.5 35.9283 3.5 35V7C3.5 6.07174 3.86875 5.1815 4.52513 4.52513C5.1815 3.86875 6.07174 3.5 7 3.5H35C35.9283 3.5 36.8185 3.86875 37.4749 4.52513C38.1312 5.1815 38.5 6.07174 38.5 7V35ZM15.75 11.375C15.75 11.8942 15.596 12.4017 15.3076 12.8334C15.0192 13.265 14.6092 13.6015 14.1295 13.8002C13.6499 13.9989 13.1221 14.0508 12.6129 13.9496C12.1037 13.8483 11.636 13.5983 11.2688 13.2312C10.9017 12.864 10.6517 12.3963 10.5504 11.8871C10.4492 11.3779 10.5011 10.8501 10.6998 10.3705C10.8985 9.8908 11.235 9.48083 11.6666 9.19239C12.0983 8.90395 12.6058 8.75 13.125 8.75C13.8212 8.75 14.4889 9.02656 14.9812 9.51884C15.4734 10.0111 15.75 10.6788 15.75 11.375ZM31.5 11.375C31.5 11.8942 31.346 12.4017 31.0576 12.8334C30.7692 13.265 30.3592 13.6015 29.8795 13.8002C29.3999 13.9989 28.8721 14.0508 28.3629 13.9496C27.8537 13.8483 27.386 13.5983 27.0188 13.2312C26.6517 12.864 26.4017 12.3963 26.3004 11.8871C26.1992 11.3779 26.2511 10.8501 26.4498 10.3705C26.6485 9.8908 26.9849 9.48083 27.4166 9.19239C27.8483 8.90395 28.3558 8.75 28.875 8.75C29.5712 8.75 30.2389 9.02656 30.7312 9.51884C31.2234 10.0111 31.5 10.6788 31.5 11.375ZM15.75 21C15.75 21.5192 15.596 22.0267 15.3076 22.4584C15.0192 22.8901 14.6092 23.2265 14.1295 23.4252C13.6499 23.6239 13.1221 23.6758 12.6129 23.5746C12.1037 23.4733 11.636 23.2233 11.2688 22.8562C10.9017 22.489 10.6517 22.0213 10.5504 21.5121C10.4492 21.0029 10.5011 20.4751 10.6998 19.9955C10.8985 19.5158 11.235 19.1058 11.6666 18.8174C12.0983 18.529 12.6058 18.375 13.125 18.375C13.8212 18.375 14.4889 18.6516 14.9812 19.1438C15.4734 19.6361 15.75 20.3038 15.75 21ZM31.5 21C31.5 21.5192 31.346 22.0267 31.0576 22.4584C30.7692 22.8901 30.3592 23.2265 29.8795 23.4252C29.3999 23.6239 28.8721 23.6758 28.3629 23.5746C27.8537 23.4733 27.386 23.2233 27.0188 22.8562C26.6517 22.489 26.4017 22.0213 26.3004 21.5121C26.1992 21.0029 26.2511 20.4751 26.4498 19.9955C26.6485 19.5158 26.9849 19.1058 27.4166 18.8174C27.8483 18.529 28.3558 18.375 28.875 18.375C29.5712 18.375 30.2389 18.6516 30.7312 19.1438C31.2234 19.6361 31.5 20.3038 31.5 21ZM15.75 30.625C15.75 31.1442 15.596 31.6517 15.3076 32.0834C15.0192 32.515 14.6092 32.8515 14.1295 33.0502C13.6499 33.2489 13.1221 33.3008 12.6129 33.1996C12.1037 33.0983 11.636 32.8483 11.2688 32.4812C10.9017 32.114 10.6517 31.6463 10.5504 31.1371C10.4492 30.6279 10.5011 30.1001 10.6998 29.6205C10.8985 29.1408 11.235 28.7308 11.6666 28.4424C12.0983 28.154 12.6058 28 13.125 28C13.8212 28 14.4889 28.2766 14.9812 28.7688C15.4734 29.2611 15.75 29.9288 15.75 30.625ZM31.5 30.625C31.5 31.1442 31.346 31.6517 31.0576 32.0834C30.7692 32.515 30.3592 32.8515 29.8795 33.0502C29.3999 33.2489 28.8721 33.3008 28.3629 33.1996C27.8537 33.0983 27.386 32.8483 27.0188 32.4812C26.6517 32.114 26.4017 31.6463 26.3004 31.1371C26.1992 30.6279 26.2511 30.1001 26.4498 29.6205C26.6485 29.1408 26.9849 28.7308 27.4166 28.4424C27.8483 28.154 28.3558 28 28.875 28C29.5712 28 30.2389 28.2766 30.7312 28.7688C31.2234 29.2611 31.5 29.9288 31.5 30.625Z" fill="white" fill-opacity="0.5"/>
</svg>
