<svg width="49" height="42" viewBox="0 0 49 42" fill="none" xmlns="http://www.w3.org/2000/svg">
<path d="M35.4375 0C30.9203 0 26.9653 1.90781 24.5 5.13262C22.0347 1.90781 18.0797 0 13.5625 0C9.96675 0.00398049 6.51942 1.40865 3.97684 3.90583C1.43426 6.40301 0.00405286 9.78877 0 13.3203C0 28.3594 22.7041 40.5324 23.6709 41.0352C23.9258 41.1698 24.2106 41.2403 24.5 41.2403C24.7894 41.2403 25.0742 41.1698 25.3291 41.0352C26.2959 40.5324 49 28.3594 49 13.3203C48.9959 9.78877 47.5657 6.40301 45.0232 3.90583C42.4806 1.40865 39.0333 0.00398049 35.4375 0ZM24.5 37.5547C20.5056 35.2688 3.5 24.8553 3.5 13.3203C3.50347 10.7003 4.56474 8.18853 6.45107 6.33588C8.33741 4.48323 10.8948 3.44091 13.5625 3.4375C17.8172 3.4375 21.3894 5.66328 22.8813 9.23828C23.0131 9.55352 23.2374 9.82314 23.5256 10.0129C23.8138 10.2027 24.153 10.304 24.5 10.304C24.847 10.304 25.1862 10.2027 25.4744 10.0129C25.7626 9.82314 25.9869 9.55352 26.1187 9.23828C27.6106 5.65684 31.1828 3.4375 35.4375 3.4375C38.1052 3.44091 40.6626 4.48323 42.5489 6.33588C44.4353 8.18853 45.4965 10.7003 45.5 13.3203C45.5 24.8381 28.49 35.2666 24.5 37.5547Z" fill="white" fill-opacity="0.5"/>
</svg>
