<svg xmlns="http://www.w3.org/2000/svg" width="107" height="22" fill="none" viewBox="0 0 107 22"><path fill="#fff" d="M8.141 16.24h14.477l-1.606 5.25H3.82c-2.563 0-4.398-2.479-3.649-4.931L5.08.506h7.872zm25.087-3.024h13.267a10 10 0 0 1 .026-2.214q.14-1.136.52-2.214H34.58l.925-3.023H48.62a15.2 15.2 0 0 1 2.814-2.976l.694-2.274h-22.89L24.33 16.567c-.75 2.453 1.086 4.93 3.649 4.93h17.734l1.605-5.25H32.3zM98.572.511l-3.521 11.513q-3.314-4.919-6.634-9.831A3.8 3.8 0 0 0 85.258.51h-4.981c-.741 2.427-1.487 4.854-2.227 7.285.217 1.022.268 2.1.132 3.206-.294 2.376-1.405 4.599-3.096 6.493-.409 1.333-.813 2.666-1.222 3.998h7.873l3.56-11.64c2.618 3.878 5.232 7.762 7.85 11.64h6.886Q103.238 11 106.445.511zm-22.29 10.487c-.744 6.076-7.587 10.998-15.28 10.998-7.694 0-13.327-4.926-12.582-10.998S56.007 0 63.7 0c7.695 0 13.328 4.926 12.583 10.998M62.995 5.76c-3.666 0-6.923 2.346-7.28 5.237-.354 2.895 2.328 5.237 5.99 5.237 3.666 0 6.923-2.346 7.28-5.237.359-2.891-2.324-5.237-5.99-5.237"/></svg>