<svg width="80" height="80" viewBox="0 0 80 80" fill="none" xmlns="http://www.w3.org/2000/svg">
<path d="M44.0493 64.2231C44.1211 56.8802 42.2595 50.909 39.8915 50.8858C37.5234 50.8628 35.5454 56.7965 35.4738 64.1393C35.4019 71.4821 37.2635 77.4535 39.6315 77.4765C41.9997 77.4997 43.9776 71.566 44.0493 64.2231Z" fill="white" fill-opacity="0.5"/>
<path d="M30.3152 62.5555C34.3458 56.4173 36.0083 50.3875 34.0288 49.0877C32.0491 47.7878 27.177 51.7101 23.1466 57.8483C19.116 63.9865 17.4534 70.0161 19.433 71.3161C21.4126 72.616 26.2846 68.6937 30.3152 62.5555Z" fill="white" fill-opacity="0.5"/>
<path d="M19.6467 53.7487C26.3562 50.7644 31.0149 46.591 30.0523 44.4271C29.0899 42.2633 22.8707 42.9286 16.1613 45.913C9.45192 48.8974 4.79316 53.0708 5.75563 55.2346C6.7181 57.3985 12.9374 56.7332 19.6467 53.7487Z" fill="white" fill-opacity="0.5"/>
<path d="M29.247 38.3592C29.6073 36.0186 24.0158 33.2155 16.7582 32.0984C9.50044 30.9813 3.32485 31.9733 2.9646 34.3139C2.60434 36.6546 8.19583 39.4575 15.4536 40.5746C22.7112 41.6917 28.8869 40.6997 29.247 38.3592Z" fill="white" fill-opacity="0.5"/>
<path d="M31.8528 32.7831C33.4211 31.0087 30.232 25.6281 24.7297 20.7652C19.2275 15.9024 13.4957 13.3987 11.9274 15.1732C10.3591 16.9478 13.5482 22.3284 19.0505 27.1913C24.5528 32.0542 30.2846 34.5577 31.8528 32.7831Z" fill="white" fill-opacity="0.5"/>
<path d="M37.0422 29.5244C39.321 28.8796 39.5474 22.6289 37.548 15.5632C35.5486 8.49742 32.0805 3.29223 29.8018 3.93705C27.523 4.58187 27.2966 10.8325 29.296 17.8983C31.2954 24.9639 34.7635 30.1692 37.0422 29.5244Z" fill="white" fill-opacity="0.5"/>
<path d="M51.1334 18.1182C53.2718 11.0932 53.1688 4.83934 50.9032 4.14972C48.6376 3.46009 45.0675 8.59586 42.9291 15.6208C40.7909 22.6457 40.8939 28.8996 43.1595 29.5892C45.4251 30.2788 48.9952 25.1431 51.1334 18.1182Z" fill="white" fill-opacity="0.5"/>
<path d="M61.2023 27.6104C66.7986 22.856 70.0923 17.5387 68.5589 15.734C67.0256 13.9292 61.2459 16.3203 55.6498 21.0745C50.0535 25.8289 46.7599 31.1462 48.2931 32.951C49.8264 34.7558 55.6061 32.3648 61.2023 27.6104Z" fill="white" fill-opacity="0.5"/>
<path d="M64.5315 41.0431C71.8099 40.0693 77.4555 37.3772 77.1415 35.0298C76.8275 32.6826 70.6727 31.5692 63.3943 32.5428C56.116 33.5165 50.4703 36.2087 50.7843 38.556C51.0984 40.9032 57.2531 42.0168 64.5315 41.0431Z" fill="white" fill-opacity="0.5"/>
<path d="M73.9207 55.9056C74.9256 53.7612 70.3501 49.4968 63.7008 46.3806C57.0517 43.2644 50.8467 42.4768 49.8418 44.6211C48.8368 46.7656 53.4123 51.03 60.0616 54.1462C66.7107 57.2622 72.9157 58.05 73.9207 55.9056Z" fill="white" fill-opacity="0.5"/>
<path d="M59.9343 71.7278C61.9391 70.4673 60.3957 64.4058 56.4871 58.1894C52.5784 51.9729 47.7845 47.9554 45.7797 49.2159C43.7749 50.4764 45.3183 56.5378 49.2269 62.7543C53.1355 68.9708 57.9295 72.9884 59.9343 71.7278Z" fill="white" fill-opacity="0.5"/>
</svg>
