<svg width="80" height="80" viewBox="0 0 80 80" fill="none" xmlns="http://www.w3.org/2000/svg">
<path d="M10.56 53.104C11.2581 53.104 11.824 47.2371 11.824 40C11.824 32.7629 11.2581 26.896 10.56 26.896C9.86192 26.896 9.29602 32.7629 9.29602 40C9.29602 47.2371 9.86192 53.104 10.56 53.104Z" fill="white" fill-opacity="0.5"/>
<path d="M13.92 54.5599C14.6976 54.5599 15.328 48.0412 15.328 39.9999C15.328 31.9587 14.6976 25.4399 13.92 25.4399C13.1424 25.4399 12.512 31.9587 12.512 39.9999C12.512 48.0412 13.1424 54.5599 13.92 54.5599Z" fill="white" fill-opacity="0.5"/>
<path d="M17.664 56.1921C18.5211 56.1921 19.216 48.9427 19.216 40.0001C19.216 31.0575 18.5211 23.8081 17.664 23.8081C16.8069 23.8081 16.112 31.0575 16.112 40.0001C16.112 48.9427 16.8069 56.1921 17.664 56.1921Z" fill="white" fill-opacity="0.5"/>
<path d="M21.808 57.9841C22.7624 57.9841 23.536 49.9324 23.536 40.0001C23.536 30.0678 22.7624 22.0161 21.808 22.0161C20.8536 22.0161 20.08 30.0678 20.08 40.0001C20.08 49.9324 20.8536 57.9841 21.808 57.9841Z" fill="white" fill-opacity="0.5"/>
<path d="M26.416 59.9841C27.4763 59.9841 28.336 51.0369 28.336 40.0001C28.336 28.9633 27.4763 20.0161 26.416 20.0161C25.3557 20.0161 24.496 28.9633 24.496 40.0001C24.496 51.0369 25.3557 59.9841 26.416 59.9841Z" fill="white" fill-opacity="0.5"/>
<path d="M31.552 62.208C32.7272 62.208 33.68 52.2651 33.68 40C33.68 27.7349 32.7272 17.792 31.552 17.792C30.3768 17.792 29.424 27.7349 29.424 40C29.424 52.2651 30.3768 62.208 31.552 62.208Z" fill="white" fill-opacity="0.5"/>
<path d="M37.248 64.6719C38.5558 64.6719 39.616 53.6258 39.616 39.9999C39.616 26.374 38.5558 15.3279 37.248 15.3279C35.9402 15.3279 34.88 26.374 34.88 39.9999C34.88 53.6258 35.9402 64.6719 37.248 64.6719Z" fill="white" fill-opacity="0.5"/>
<path d="M43.568 67.408C45.0261 67.408 46.208 55.137 46.208 40C46.208 24.8631 45.0261 12.592 43.568 12.592C42.1099 12.592 40.928 24.8631 40.928 40C40.928 55.137 42.1099 67.408 43.568 67.408Z" fill="white" fill-opacity="0.5"/>
<path d="M50.592 70.4639C52.2091 70.4639 53.52 56.8247 53.52 39.9999C53.52 23.1751 52.2091 9.53589 50.592 9.53589C48.9749 9.53589 47.664 23.1751 47.664 39.9999C47.664 56.8247 48.9749 70.4639 50.592 70.4639Z" fill="white" fill-opacity="0.5"/>
<path d="M58.4 73.8399C60.1937 73.8399 61.648 58.6892 61.648 39.9999C61.648 21.3106 60.1937 6.15991 58.4 6.15991C56.6062 6.15991 55.152 21.3106 55.152 39.9999C55.152 58.6892 56.6062 73.8399 58.4 73.8399Z" fill="white" fill-opacity="0.5"/>
<path d="M67.072 77.5999C69.0691 77.5999 70.688 60.7658 70.688 39.9999C70.688 19.234 69.0691 2.3999 67.072 2.3999C65.0749 2.3999 63.456 19.234 63.456 39.9999C63.456 60.7658 65.0749 77.5999 67.072 77.5999Z" fill="white" fill-opacity="0.5"/>
</svg>
