<svg width="140" height="30" viewBox="0 0 140 30" fill="none" xmlns="http://www.w3.org/2000/svg">
<path d="M22.4191 13.371C22.0401 13.7523 21.7499 14.2125 21.569 14.7187C21.3882 15.225 21.3213 15.7649 21.373 16.3L21.355 16.282C21.4082 16.9119 21.3232 17.5457 21.1061 18.1394C20.889 18.733 20.5451 19.2721 20.0982 19.7191C19.6512 20.166 19.112 20.5101 18.5183 20.7271C17.9247 20.9442 17.2908 21.0292 16.661 20.976L16.6791 20.994C15.9257 20.9239 15.1689 21.0878 14.512 21.4635C13.8552 21.8392 13.3302 22.4083 13.0087 23.0933C12.6872 23.7783 12.5847 24.5457 12.7153 25.2911C12.846 26.0364 13.2033 26.7233 13.7386 27.2581C14.2739 27.7929 14.9611 28.1496 15.7065 28.2795C16.452 28.4095 17.2193 28.3063 17.904 27.9842C18.5887 27.662 19.1573 27.1366 19.5324 26.4794C19.9075 25.8222 20.0708 25.0654 20 24.312L20.019 24.33C19.9658 23.7002 20.0507 23.0663 20.2678 22.4726C20.4849 21.879 20.829 21.3399 21.2759 20.8929C21.7229 20.446 22.262 20.1019 22.8556 19.8849C23.4494 19.6678 24.0831 19.5828 24.713 19.636L24.694 19.618C25.3095 19.6733 25.929 19.5724 26.4951 19.3246C27.0611 19.0768 27.5554 18.6901 27.9322 18.2004C28.309 17.7107 28.5562 17.1337 28.6507 16.5231C28.7451 15.9124 28.684 15.2878 28.4727 14.707C28.2615 14.1263 27.9071 13.6083 27.4424 13.201C26.9777 12.7937 26.4178 12.5103 25.8144 12.3771C25.2109 12.2439 24.5837 12.2651 23.9907 12.4388C23.3976 12.6126 22.8582 12.9332 22.4221 13.371H22.4191Z" fill="white" fill-opacity="0.5"/>
<path d="M15.042 18.636L15.023 18.618C15.5583 18.6719 16.0989 18.6062 16.6058 18.4256C17.1126 18.245 17.573 17.9541 17.9536 17.5738C18.3341 17.1935 18.6255 16.7333 18.8064 16.2266C18.9874 15.7199 19.0535 15.1794 19 14.644L19.019 14.662C18.9658 14.0321 19.0508 13.3983 19.2678 12.8046C19.4849 12.211 19.829 11.6719 20.2759 11.2249C20.7229 10.778 21.262 10.4339 21.8556 10.2169C22.4493 9.99976 23.0831 9.91483 23.713 9.968L23.694 9.95C24.4475 10.0208 25.2044 9.85736 25.8616 9.4821C26.5189 9.10684 27.0443 8.53797 27.3663 7.8531C27.6883 7.16824 27.7912 6.40071 27.661 5.6552C27.5308 4.90969 27.1738 4.22251 26.6386 3.68737C26.1035 3.15224 25.4163 2.7952 24.6708 2.66498C23.9253 2.53475 23.1578 2.63766 22.4729 2.95968C21.788 3.28169 21.2192 3.80714 20.8439 4.46435C20.4686 5.12155 20.3052 5.87852 20.376 6.632L20.358 6.613C20.4113 7.24289 20.3265 7.87683 20.1095 8.47055C19.8925 9.06427 19.5484 9.60346 19.1015 10.0505C18.6545 10.4974 18.1153 10.8415 17.5216 11.0585C16.9278 11.2755 16.2939 11.3603 15.664 11.307L15.682 11.326C15.1467 11.2721 14.606 11.3378 14.0992 11.5184C13.5924 11.6989 13.132 11.9899 12.7514 12.3702C12.3708 12.7505 12.0795 13.2107 11.8985 13.7174C11.7176 14.2241 11.6515 14.7646 11.705 15.3L11.687 15.282C11.74 15.9118 11.6549 16.5456 11.4378 17.1392C11.2206 17.7327 10.8766 18.2718 10.4297 18.7187C9.98279 19.1656 9.44375 19.5096 8.85019 19.7268C8.25663 19.9439 7.62284 20.029 6.99303 19.976L7.01103 19.994C6.25755 19.9232 5.50058 20.0866 4.84337 20.4619C4.18617 20.8372 3.66072 21.406 3.33871 22.0909C3.01669 22.7758 2.91377 23.5433 3.044 24.2888C3.17423 25.0343 3.53127 25.7215 4.0664 26.2566C4.60154 26.7918 5.28872 27.1488 6.03423 27.279C6.77974 27.4092 7.54727 27.3063 8.23214 26.9843C8.917 26.6623 9.48587 26.1369 9.86113 25.4797C10.2364 24.8224 10.3998 24.0655 10.329 23.312L10.348 23.33C10.2948 22.7001 10.3798 22.0663 10.5969 21.4726C10.8139 20.879 11.158 20.3399 11.6049 19.8929C12.0519 19.446 12.591 19.1019 13.1846 18.8849C13.7783 18.6678 14.4121 18.5828 15.042 18.636Z" fill="white" fill-opacity="0.5"/>
<path d="M8.33997 16.6289C8.71899 16.2477 9.00917 15.7875 9.18981 15.2812C9.37045 14.7749 9.43709 14.2349 9.38497 13.6999L9.40396 13.7179C9.35076 13.0879 9.43572 12.4538 9.65293 11.86C9.87014 11.2662 10.2144 10.727 10.6616 10.28C11.1088 9.83306 11.6481 9.48907 12.242 9.27212C12.8359 9.05516 13.47 8.97046 14.1 9.02394L14.081 9.00594C14.8342 9.07651 15.5909 8.91302 16.2478 8.53778C16.9047 8.16255 17.4298 7.59382 17.7517 6.90917C18.0735 6.22451 18.1763 5.45726 18.0461 4.71203C17.9159 3.9668 17.5589 3.27988 17.024 2.74494C16.4891 2.21 15.8021 1.85308 15.0569 1.72286C14.3117 1.59263 13.5444 1.69545 12.8598 2.01727C12.1751 2.33909 11.6064 2.86426 11.2312 3.52116C10.8559 4.17806 10.6924 4.93472 10.763 5.68794L10.745 5.66994C10.7982 6.29979 10.7132 6.93366 10.4961 7.5273C10.279 8.12094 9.93499 8.66005 9.48803 9.10701C9.04108 9.55397 8.50196 9.898 7.90832 10.115C7.31468 10.3321 6.68082 10.4171 6.05097 10.3639L6.06897 10.3819C5.45354 10.3267 4.83413 10.4278 4.26815 10.6757C3.70217 10.9236 3.20792 11.3104 2.83121 11.8002C2.4545 12.2899 2.20752 12.8669 2.11314 13.4775C2.01877 14.0882 2.08006 14.7128 2.29133 15.2934C2.5026 15.8741 2.85703 16.392 3.32176 16.7992C3.78649 17.2065 4.34649 17.4898 4.94987 17.623C5.55324 17.7561 6.18047 17.7348 6.77344 17.5611C7.3664 17.3873 7.9059 17.0667 8.34196 16.6289H8.33997Z" fill="white" fill-opacity="0.5"/>
<path d="M39.317 6.65503H42.287V21.108H39.317V6.65503Z" fill="white" fill-opacity="0.5"/>
<path d="M43.969 16.1591C43.9649 15.1205 44.2691 14.1039 44.8431 13.2383C45.4171 12.3727 46.2351 11.6969 47.1935 11.2966C48.1519 10.8962 49.2075 10.7893 50.2267 10.9894C51.2459 11.1895 52.1828 11.6875 52.9187 12.4205C53.6546 13.1534 54.1564 14.0883 54.3606 15.1067C54.5648 16.1251 54.4621 17.1812 54.0656 18.1412C53.6691 19.1011 52.9966 19.9219 52.1333 20.4993C51.2699 21.0768 50.2547 21.3851 49.216 21.3851C48.5266 21.393 47.8425 21.2633 47.2037 21.0037C46.5649 20.7441 45.9843 20.3598 45.4958 19.8733C45.0072 19.3867 44.6206 18.8076 44.3585 18.1699C44.0963 17.5322 43.9639 16.8486 43.969 16.1591ZM51.493 16.1591C51.4806 15.7114 51.3365 15.2773 51.0788 14.911C50.821 14.5448 50.461 14.2626 50.0438 14.0999C49.6265 13.9371 49.1706 13.9009 48.7329 13.9959C48.2952 14.0909 47.8952 14.3127 47.5829 14.6338C47.2707 14.9548 47.0599 15.3608 46.9772 15.801C46.8944 16.2411 46.9431 16.6959 47.1174 17.1085C47.2917 17.5211 47.5837 17.8731 47.9569 18.1206C48.3302 18.3681 48.7682 18.5001 49.216 18.5001C49.5227 18.5083 49.8278 18.4528 50.1121 18.3372C50.3963 18.2216 50.6535 18.0484 50.8674 17.8285C51.0813 17.6085 51.2474 17.3466 51.355 17.0593C51.4627 16.772 51.5097 16.4655 51.493 16.1591Z" fill="white" fill-opacity="0.5"/>
<path d="M66.3 11.2091V20.6091C66.3 23.9351 63.706 25.3411 61.073 25.3411C60.146 25.4105 59.2177 25.2232 58.39 24.7999C57.5624 24.3765 56.8673 23.7334 56.381 22.9411L58.915 21.4761C59.1194 21.8891 59.4451 22.2298 59.8484 22.4527C60.2518 22.6755 60.7136 22.7699 61.172 22.7231C61.465 22.7637 61.7634 22.7379 62.0451 22.6476C62.3267 22.5573 62.5845 22.4048 62.7993 22.2015C63.0141 21.9981 63.1804 21.7491 63.286 21.4727C63.3915 21.1964 63.4335 20.8999 63.409 20.6051V19.7001C63.0612 20.1256 62.6186 20.4637 62.1165 20.6872C61.6144 20.9107 61.067 21.0134 60.518 20.9871C59.2118 20.9459 57.9729 20.3981 57.0635 19.4595C56.1541 18.521 55.6456 17.2654 55.6456 15.9586C55.6456 14.6518 56.1541 13.3962 57.0635 12.4577C57.9729 11.5191 59.2118 10.9713 60.518 10.9301C61.067 10.9038 61.6144 11.0065 62.1165 11.23C62.6186 11.4535 63.0612 11.7916 63.409 12.2171V11.2071L66.3 11.2091ZM63.41 15.9601C63.43 15.4815 63.3062 15.0078 63.0547 14.6001C62.8032 14.1923 62.4354 13.8692 61.9987 13.6723C61.562 13.4753 61.0764 13.4136 60.6043 13.495C60.1322 13.5764 59.6953 13.7972 59.3497 14.1291C59.0042 14.4609 58.7659 14.8885 58.6654 15.3569C58.565 15.8253 58.607 16.3131 58.7862 16.7574C58.9653 17.2017 59.2733 17.5823 59.6705 17.8501C60.0677 18.1179 60.536 18.2607 61.015 18.2601C61.3271 18.2819 61.6402 18.2381 61.9343 18.1315C62.2284 18.0249 62.4969 17.8578 62.7225 17.6412C62.9481 17.4245 63.1259 17.163 63.2443 16.8734C63.3627 16.5839 63.4192 16.2728 63.41 15.9601Z" fill="white" fill-opacity="0.5"/>
<path d="M67.982 16.1591C67.9779 15.1205 68.282 14.1039 68.8561 13.2383C69.4301 12.3727 70.248 11.6969 71.2064 11.2966C72.1648 10.8962 73.2205 10.7893 74.2397 10.9894C75.2589 11.1895 76.1958 11.6875 76.9317 12.4205C77.6676 13.1534 78.1693 14.0883 78.3735 15.1067C78.5777 16.1251 78.475 17.1812 78.0785 18.1412C77.682 19.1011 77.0096 19.9219 76.1463 20.4993C75.2829 21.0768 74.2676 21.3851 73.2289 21.3851C72.5395 21.393 71.8553 21.2633 71.2166 21.0037C70.5778 20.7441 69.9972 20.3598 69.5087 19.8733C69.0201 19.3867 68.6335 18.8076 68.3714 18.1699C68.1092 17.5322 67.9769 16.8486 67.982 16.1591ZM75.5059 16.1591C75.4935 15.7114 75.3494 15.2773 75.0917 14.911C74.8339 14.5448 74.474 14.2626 74.0568 14.0999C73.6395 13.9371 73.1835 13.9009 72.7459 13.9959C72.3082 14.0909 71.9082 14.3127 71.5959 14.6338C71.2837 14.9548 71.0728 15.3608 70.99 15.801C70.9072 16.2411 70.9561 16.6959 71.1304 17.1085C71.3047 17.5211 71.5967 17.8731 71.9699 18.1206C72.3432 18.3681 72.781 18.5001 73.2289 18.5001C73.5356 18.5083 73.8408 18.4528 74.125 18.3372C74.4093 18.2216 74.6665 18.0484 74.8804 17.8285C75.0943 17.6085 75.2603 17.3466 75.3679 17.0593C75.4756 16.772 75.5226 16.4655 75.5059 16.1591Z" fill="white" fill-opacity="0.5"/>
<path d="M79.861 8.55593C79.861 8.20348 79.9655 7.85895 80.1613 7.56591C80.3571 7.27286 80.6355 7.04445 80.9611 6.90958C81.2867 6.7747 81.645 6.73941 81.9907 6.80817C82.3363 6.87693 82.6539 7.04665 82.9031 7.29587C83.1523 7.54508 83.322 7.8626 83.3908 8.20828C83.4595 8.55395 83.4242 8.91225 83.2894 9.23787C83.1545 9.56349 82.9261 9.8418 82.633 10.0376C82.34 10.2334 81.9955 10.3379 81.643 10.3379C81.1719 10.3332 80.7213 10.144 80.3881 9.81081C80.055 9.47763 79.8657 9.02709 79.861 8.55593ZM80.161 11.2089H83.132V21.1089H80.157L80.161 11.2089Z" fill="white" fill-opacity="0.5"/>
<path d="M95.9561 16.159C95.9904 16.8133 95.8951 17.4679 95.6755 18.0852C95.456 18.7025 95.1166 19.2703 94.6768 19.756C94.2371 20.2416 93.7056 20.6356 93.1131 20.9152C92.5205 21.1947 91.8786 21.3544 91.2241 21.385C90.6737 21.415 90.1236 21.3222 89.6135 21.1133C89.1034 20.9043 88.6463 20.5845 88.2751 20.177V25.068H85.3051V11.209H88.2751V12.139C88.6464 11.7318 89.1037 11.4122 89.6137 11.2035C90.1238 10.9947 90.6738 10.902 91.2241 10.932C91.8787 10.9625 92.5208 11.1221 93.1135 11.4017C93.7062 11.6813 94.2377 12.0753 94.6775 12.5611C95.1173 13.0469 95.4567 13.6149 95.6761 14.2324C95.8955 14.8498 95.9907 15.5046 95.9561 16.159ZM92.9861 16.159C92.9745 15.6957 92.8265 15.2461 92.5606 14.8664C92.2947 14.4868 91.9228 14.194 91.4914 14.0248C91.0599 13.8555 90.5881 13.8172 90.135 13.9148C89.6819 14.0123 89.2677 14.2413 88.9441 14.5731C88.6205 14.905 88.402 15.3248 88.3159 15.7803C88.2298 16.2357 88.2799 16.7063 88.46 17.1334C88.64 17.5605 88.9421 17.9249 89.3283 18.1812C89.7145 18.4374 90.1676 18.5741 90.6311 18.574C90.9493 18.5882 91.2669 18.5349 91.5631 18.4177C91.8592 18.3006 92.1273 18.1221 92.3496 17.8941C92.572 17.666 92.7436 17.3936 92.8533 17.0946C92.963 16.7956 93.0083 16.4767 92.9861 16.159Z" fill="white" fill-opacity="0.5"/>
<path d="M105.121 18.1381C105.121 20.4151 103.142 21.3851 101.004 21.3851C100.14 21.4633 99.2726 21.2807 98.5137 20.8606C97.7548 20.4406 97.1394 19.8026 96.7469 19.0291L99.3199 17.5641C99.424 17.9216 99.6476 18.2327 99.9533 18.4452C100.259 18.6578 100.629 18.7591 101 18.7321C101.712 18.7321 102.069 18.5141 102.069 18.1191C102.069 17.0291 97.1979 17.6041 97.1979 14.1791C97.1979 12.0201 99.0199 10.9321 101.079 10.9321C101.853 10.9076 102.619 11.0912 103.298 11.4637C103.977 11.8363 104.544 12.3841 104.939 13.0501L102.405 14.4161C102.294 14.1568 102.109 13.9359 101.873 13.781C101.637 13.6261 101.361 13.5441 101.079 13.5451C100.564 13.5451 100.247 13.7451 100.247 14.0991C100.251 15.2281 105.121 14.4751 105.121 18.1381Z" fill="white" fill-opacity="0.5"/>
<path d="M115.97 11.209V21.109H113V20.178C112.657 20.5888 112.222 20.9125 111.73 21.1225C111.238 21.3325 110.704 21.4228 110.17 21.386C108.17 21.386 106.47 19.961 106.47 17.286V11.209H109.44V16.851C109.415 17.0868 109.442 17.3252 109.519 17.5495C109.595 17.7739 109.72 17.9789 109.884 18.1502C110.048 18.3215 110.247 18.455 110.468 18.5415C110.688 18.628 110.925 18.6654 111.162 18.651C112.251 18.651 113.003 18.018 113.003 16.612V11.212L115.97 11.209Z" fill="white" fill-opacity="0.5"/>
<path d="M133 15.03V21.108H130.03V15.287C130.03 14.297 129.555 13.664 128.605 13.664C127.615 13.664 127.06 14.357 127.06 15.525V21.108H124.091V15.287C124.091 14.297 123.616 13.664 122.665 13.664C121.675 13.664 121.121 14.357 121.121 15.525V21.108H118.151V11.208H121.121V12.118C121.429 11.7143 121.833 11.3941 122.296 11.1868C122.76 10.9794 123.268 10.8915 123.774 10.931C124.282 10.9061 124.788 11.0134 125.243 11.2423C125.697 11.4711 126.084 11.8139 126.367 12.237C126.696 11.7943 127.132 11.4423 127.634 11.2139C128.136 10.9855 128.688 10.8882 129.238 10.931C131.511 10.932 133 12.555 133 15.03Z" fill="white" fill-opacity="0.5"/>
<path d="M135.512 11.148C136.729 11.148 137.716 10.1612 137.716 8.94399C137.716 7.72675 136.729 6.73999 135.512 6.73999C134.295 6.73999 133.308 7.72675 133.308 8.94399C133.308 10.1612 134.295 11.148 135.512 11.148Z" fill="white" fill-opacity="0.5"/>
</svg>
