<svg xmlns="http://www.w3.org/2000/svg" width="450" height="175" viewBox="0 0 450 175" fill="none">
<path d="M93.4545 66.1585C96.8346 74.9958 96.4885 82.9072 92.3009 89.9268C88.4555 96.5119 82.1144 101.085 73.2776 103.646C69.2977 104.789 64.5563 105.932 59.1804 107.076L52.051 108.493L44.9332 109.888H44.864L23.2797 114.175L0.749512 26.8305L30.213 20.051C36.6351 18.7399 43.1421 17.8765 49.6861 17.4672C57.1616 16.9756 63.2988 17.4672 68.0517 18.7819C80.5339 22.1812 83.1219 31.0453 75.8156 45.3741C74.9421 47.0924 73.8864 48.7135 72.6662 50.21C83.0334 51.582 89.9628 56.8981 93.4545 66.1585ZM39.9726 54.6802C42.8367 54.0874 45.4376 52.6105 47.4019 50.4616C48.1633 49.6516 48.7422 48.6904 49.1002 47.6418C49.4582 46.5932 49.5871 45.4812 49.4785 44.3794C49.3462 43.3198 48.9326 42.3139 48.2801 41.4644C47.6275 40.6148 46.7592 39.952 45.7638 39.5435C43.2258 38.4002 39.9265 38.1944 35.7504 39.0976L39.9726 54.6802ZM61.0723 87.3316C62.1782 86.3719 63.0836 85.2066 63.7372 83.9018C64.3495 82.5842 64.4117 81.0803 63.9102 79.7175C62.7566 76.7907 59.9303 74.9501 55.6272 74.2413C53.7892 73.9494 51.9229 73.8727 50.0668 74.0126C48.544 74.0126 46.9174 74.1956 45.1524 74.4128L49.5477 90.6927C49.5477 90.8528 50.5513 90.8299 52.5932 90.5327C53.3085 90.4069 54.0353 90.3383 54.7505 90.2126C55.4657 90.0868 55.8349 89.9954 55.9964 89.9496C57.6125 89.6045 59.13 88.9053 60.4378 87.9032L61.0723 87.3316Z" fill="#CB7529"/>
<path d="M104.437 98.296L94.0547 14.0038L128.121 10.917L135.043 95.0721L104.437 98.296Z" fill="#CB7529"/>
<path d="M225.461 93.048L145.469 94.3171V87.5718L175.464 41.4758L142.239 44.3225L142.574 17.2959L223.396 0.444336V7.18954L198.132 61.2541L224.873 59.5964L225.461 93.048Z" fill="#CB7529"/>
<path d="M314.197 98.8902L234.598 91.5962V84.851L269.748 42.7449L236.743 41.6017V9.33899L321.569 6.65234V13.3976L290.491 64.3867L317.255 65.61L314.197 98.8902Z" fill="#CB7529"/>
<path d="M364.234 108.928C357.632 107.868 351.314 105.496 345.661 101.954C340.399 98.6889 335.868 94.3894 332.348 89.3212C328.78 84.1769 326.372 78.331 325.289 72.1816C324.207 66.0322 324.474 59.7238 326.072 53.6859C327.677 47.2812 330.617 41.2801 334.701 36.0683C340.853 28.0851 349.075 21.9065 358.492 18.1917C367.909 14.4768 378.167 13.3652 388.172 14.9753C394.778 16.0338 401.1 18.406 406.757 21.9491C412.052 25.1924 416.603 29.4999 420.115 34.5935C423.602 39.6191 425.962 45.3261 427.037 51.3308C428.195 57.5898 427.959 64.024 426.345 70.1831C424.725 76.5772 421.804 82.5761 417.762 87.8121C413.739 93.0574 408.796 97.542 403.169 101.051C391.661 108.456 377.75 111.271 364.234 108.928ZM356.689 59.0935C356.034 61.4851 355.914 63.9896 356.336 66.4322C356.759 68.8747 357.714 71.1965 359.135 73.2356C360.602 75.3241 362.484 77.0931 364.667 78.434C366.849 79.7749 369.285 80.6592 371.825 81.0326C377.208 81.9736 382.752 80.8496 387.33 77.8886C389.608 76.559 391.597 74.7939 393.182 72.6958C394.766 70.5978 395.914 68.2086 396.559 65.6672C397.222 63.2679 397.337 60.7521 396.894 58.3034C396.45 55.8546 395.461 53.5349 393.997 51.5137C392.563 49.3949 390.689 47.6035 388.501 46.259C386.313 44.9145 383.861 44.0478 381.308 43.7167C375.924 42.7861 370.385 43.9093 365.803 46.8607C361.253 49.5842 357.976 53.9824 356.689 59.0935V59.0935Z" fill="#CB7529"/>
<g opacity="0.6">
<path style="mix-blend-mode:multiply" opacity="0.6" d="M93.4545 66.1585C96.8346 74.9958 96.4885 82.9072 92.3009 89.9268C88.4555 96.5119 82.1144 101.085 73.2776 103.646C69.2977 104.789 64.5563 105.932 59.1804 107.076L52.051 108.493L44.9332 109.888H44.864L23.2797 114.175L0.749512 26.8305L30.213 20.051C36.6351 18.7399 43.1421 17.8765 49.6861 17.4672C57.1616 16.9756 63.2988 17.4672 68.0517 18.7819C80.5339 22.1812 83.1219 31.0453 75.8156 45.3741C74.9421 47.0924 73.8864 48.7135 72.6662 50.21C83.0334 51.582 89.9628 56.8981 93.4545 66.1585ZM39.9726 54.6802C42.8367 54.0874 45.4376 52.6105 47.4019 50.4616C48.1633 49.6516 48.7422 48.6904 49.1002 47.6418C49.4582 46.5932 49.5871 45.4812 49.4785 44.3794C49.3462 43.3198 48.9326 42.3139 48.2801 41.4644C47.6275 40.6148 46.7592 39.952 45.7638 39.5435C43.2258 38.4002 39.9265 38.1944 35.7504 39.0976L39.9726 54.6802ZM61.0723 87.3316C62.1782 86.3719 63.0836 85.2066 63.7372 83.9018C64.3495 82.5842 64.4117 81.0803 63.9102 79.7175C62.7566 76.7907 59.9303 74.9501 55.6272 74.2413C53.7892 73.9494 51.9229 73.8727 50.0668 74.0126C48.544 74.0126 46.9174 74.1956 45.1524 74.4128L49.5477 90.6927C49.5477 90.8528 50.5513 90.8299 52.5932 90.5327C53.3085 90.4069 54.0353 90.3383 54.7505 90.2126C55.4657 90.0868 55.8349 89.9954 55.9964 89.9496C57.6125 89.6045 59.13 88.9053 60.4378 87.9032L61.0723 87.3316Z" fill="url(#paint0_linear)"/>
<g style="mix-blend-mode:multiply" opacity="0.6">
<path d="M104.437 98.296L94.0547 14.0038L128.121 10.917L135.043 95.0721L104.437 98.296Z" fill="url(#paint1_linear)" style="mix-blend-mode:multiply"/>
<path d="M104.437 98.296L94.0547 14.0038L128.121 10.917L135.043 95.0721L104.437 98.296Z" fill="url(#paint2_linear)" style="mix-blend-mode:multiply"/>
</g>
<g style="mix-blend-mode:multiply" opacity="0.6">
<path d="M225.465 93.048L145.473 94.3171V87.5718L175.468 41.4758L142.243 44.3225L147.054 21.5603L142.001 7.44106L223.4 0.444336V7.18954L198.136 61.2541L224.877 59.5964L225.465 93.048Z" fill="url(#paint3_linear)" style="mix-blend-mode:multiply"/>
<path d="M225.465 93.048L145.473 94.3171V87.5718L175.468 41.4758L142.243 44.3225L147.054 21.5603L142.001 7.44106L223.4 0.444336V7.18954L198.136 61.2541L224.877 59.5964L225.465 93.048Z" fill="url(#paint4_linear)" style="mix-blend-mode:multiply"/>
</g>
<g style="mix-blend-mode:multiply" opacity="0.6">
<path d="M314.197 98.8902L234.598 91.5962V84.851L269.748 42.7449L236.743 41.6017V9.33899L321.569 6.65234V13.3976L290.491 64.3867L317.255 65.61L314.197 98.8902Z" fill="url(#paint5_linear)" style="mix-blend-mode:multiply"/>
<path d="M314.197 98.8902L234.598 91.5962V84.851L269.748 42.7449L236.743 41.6017V9.33899L321.569 6.65234V13.3976L290.491 64.3867L317.255 65.61L314.197 98.8902Z" fill="url(#paint6_linear)" style="mix-blend-mode:multiply"/>
</g>
<g style="mix-blend-mode:multiply" opacity="0.6">
<path d="M364.234 108.928C357.632 107.868 351.314 105.496 345.661 101.954C340.399 98.6889 335.868 94.3894 332.348 89.3212C328.78 84.1769 326.372 78.331 325.289 72.1816C324.207 66.0322 324.474 59.7238 326.072 53.6859C327.677 47.2812 330.617 41.2801 334.701 36.0683C340.853 28.0851 349.075 21.9065 358.492 18.1917C367.909 14.4768 378.167 13.3652 388.172 14.9753C394.778 16.0338 401.1 18.406 406.757 21.9491C412.052 25.1924 416.603 29.4999 420.115 34.5935C423.602 39.6191 425.962 45.3261 427.037 51.3308C428.195 57.5898 427.959 64.024 426.345 70.1831C424.725 76.5772 421.804 82.5761 417.762 87.8121C413.739 93.0574 408.796 97.542 403.169 101.051C391.661 108.456 377.75 111.271 364.234 108.928ZM356.689 59.0935C356.034 61.4851 355.914 63.9896 356.336 66.4322C356.759 68.8747 357.714 71.1965 359.135 73.2356C360.602 75.3241 362.484 77.0931 364.667 78.434C366.849 79.7749 369.285 80.6592 371.825 81.0326C377.208 81.9736 382.752 80.8496 387.33 77.8886C389.608 76.559 391.597 74.7939 393.182 72.6958C394.766 70.5978 395.914 68.2086 396.559 65.6672C397.222 63.2679 397.337 60.7521 396.894 58.3034C396.45 55.8546 395.461 53.5349 393.997 51.5137C392.563 49.3949 390.689 47.6035 388.501 46.259C386.313 44.9145 383.861 44.0478 381.308 43.7167C375.924 42.7861 370.385 43.9093 365.803 46.8607C361.253 49.5842 357.976 53.9824 356.689 59.0935V59.0935Z" fill="url(#paint7_linear)" style="mix-blend-mode:multiply"/>
<path d="M364.234 108.928C357.632 107.868 351.314 105.496 345.661 101.954C340.399 98.6889 335.868 94.3894 332.348 89.3212C328.78 84.1769 326.372 78.331 325.289 72.1816C324.207 66.0322 324.474 59.7238 326.072 53.6859C327.677 47.2812 330.617 41.2801 334.701 36.0683C340.853 28.0851 349.075 21.9065 358.492 18.1917C367.909 14.4768 378.167 13.3652 388.172 14.9753C394.778 16.0338 401.1 18.406 406.757 21.9491C412.052 25.1924 416.603 29.4999 420.115 34.5935C423.602 39.6191 425.962 45.3261 427.037 51.3308C428.195 57.5898 427.959 64.024 426.345 70.1831C424.725 76.5772 421.804 82.5761 417.762 87.8121C413.739 93.0574 408.796 97.542 403.169 101.051C391.661 108.456 377.75 111.271 364.234 108.928ZM356.689 59.0935C356.034 61.4851 355.914 63.9896 356.336 66.4322C356.759 68.8747 357.714 71.1965 359.135 73.2356C360.602 75.3241 362.484 77.0931 364.667 78.434C366.849 79.7749 369.285 80.6592 371.825 81.0326C377.208 81.9736 382.752 80.8496 387.33 77.8886C389.608 76.559 391.597 74.7939 393.182 72.6958C394.766 70.5978 395.914 68.2086 396.559 65.6672C397.222 63.2679 397.337 60.7521 396.894 58.3034C396.45 55.8546 395.461 53.5349 393.997 51.5137C392.563 49.3949 390.689 47.6035 388.501 46.259C386.313 44.9145 383.861 44.0478 381.308 43.7167C375.924 42.7861 370.385 43.9093 365.803 46.8607C361.253 49.5842 357.976 53.9824 356.689 59.0935V59.0935Z" fill="url(#paint8_linear)" style="mix-blend-mode:multiply"/>
</g>
</g>
<path d="M126.657 165.668C121.351 169.697 114.685 171.552 108.038 170.847C104.689 170.508 101.437 169.53 98.4628 167.966C95.6424 166.473 93.1269 164.473 91.0451 162.067C88.9788 159.705 87.4099 156.956 86.4306 153.984C85.4294 150.953 85.0989 147.744 85.4615 144.575C85.8085 141.415 86.8184 138.362 88.4264 135.612C90.0139 132.92 92.1186 130.562 94.6213 128.673C99.8556 124.632 106.494 122.814 113.079 123.619C118.798 124.159 124.162 126.606 128.295 130.559L121.962 140.162C120.207 138.796 118.093 137.959 115.871 137.75C113.012 137.375 110.117 138.112 107.796 139.808C106.681 140.552 105.743 141.528 105.049 142.668C104.354 143.808 103.919 145.084 103.774 146.408C103.629 147.732 103.777 149.072 104.209 150.333C104.641 151.594 105.345 152.747 106.273 153.71C108.146 155.72 110.663 157.025 113.396 157.405C116.13 157.784 118.912 157.214 121.27 155.791L126.657 165.668Z" fill="white"/>
<path d="M143.326 173.179L127.002 167.806L150.986 121.104L178.269 165.69L165.96 173.59L162.026 166.125L146.106 165.748L143.326 173.179ZM156.489 155.676L152.647 148.416L150.04 155.401L156.489 155.676Z" fill="white"/>
<path d="M202.516 124.579L198.871 135.086C195.075 133.794 192.584 133.943 191.453 135.612C189.93 137.715 191.234 140.185 195.295 143.043C197.088 144.298 198.956 145.443 200.89 146.473L201.582 146.861L202.193 147.181C202.712 147.456 203.105 147.684 203.347 147.822C204.143 148.279 204.731 148.645 205.089 148.885C207.584 150.535 209.384 153.031 210.153 155.904C210.875 158.688 210.602 161.633 209.38 164.239C208.267 166.885 206.473 169.195 204.177 170.938C201.373 172.839 198.098 173.945 194.706 174.139C192.138 174.294 189.56 174.047 187.069 173.408C184.423 172.798 181.824 171.999 179.294 171.018L185.247 160.592C186.788 161.75 188.677 162.362 190.611 162.33C192.191 162.192 192.826 161.255 192.491 159.551C192.232 158.398 191.615 157.355 190.726 156.568C189.493 155.515 188.123 154.631 186.654 153.938L185.385 153.298L184.116 152.646C183.089 152.12 182.201 151.652 181.509 151.24C177.171 148.725 174.506 145.524 173.537 141.705C172.699 138.466 173.111 135.034 174.691 132.079C176.23 129.158 178.7 126.823 181.716 125.437C185.886 123.473 190.511 122.651 195.11 123.059C197.635 123.244 200.125 123.755 202.516 124.579V124.579Z" fill="white"/>
<path d="M212.877 170.687L212.381 124.751L229.281 125.071L228.128 170.733L212.877 170.687Z" fill="white"/>
<path d="M233.352 172.241L233.052 128.969L260.439 144.655L259.159 125.677L277.513 124.693L279.059 171.727L250.414 158.637L250.945 172.184L233.352 172.241Z" fill="white"/>
<path d="M303.343 172.276C300.006 172.042 296.75 171.148 293.768 169.646C291.011 168.241 288.57 166.297 286.592 163.93C284.594 161.521 283.142 158.714 282.336 155.7C281.53 152.686 281.388 149.535 281.92 146.461C282.447 143.202 283.653 140.087 285.462 137.315C288.181 133.084 292.008 129.663 296.534 127.418C301.061 125.173 306.117 124.188 311.165 124.568C314.499 124.817 317.748 125.731 320.716 127.254C323.489 128.646 325.94 130.592 327.915 132.971C329.861 135.317 331.284 138.044 332.091 140.973C332.937 144.05 333.098 147.272 332.564 150.417C332.033 153.671 330.836 156.784 329.046 159.563C327.262 162.337 324.992 164.772 322.343 166.754C316.936 170.898 310.152 172.869 303.343 172.276V172.276ZM297.448 147.787C297.224 149.005 297.272 150.256 297.589 151.453C297.906 152.65 298.484 153.764 299.282 154.715C300.1 155.7 301.115 156.505 302.262 157.082C303.41 157.658 304.666 157.993 305.95 158.065C308.669 158.3 311.376 157.508 313.529 155.847C314.606 155.09 315.52 154.128 316.217 153.017C316.915 151.906 317.381 150.668 317.59 149.376C317.817 148.152 317.764 146.893 317.435 145.692C317.106 144.491 316.508 143.378 315.687 142.437C314.884 141.444 313.877 140.633 312.733 140.055C311.59 139.478 310.335 139.148 309.053 139.087C306.332 138.86 303.624 139.652 301.463 141.305C299.314 142.857 297.872 145.187 297.448 147.787V147.787Z" fill="white"/>
<path d="M93.4545 59.4134C96.8346 68.2508 96.4885 76.1621 92.3009 83.1817C88.4555 89.7669 82.1144 94.3399 73.2776 96.9008C69.2977 98.0441 64.5563 99.1873 59.1804 100.331L52.051 101.748L44.9217 103.12H44.8524L23.2797 107.43L0.749512 20.0969L30.213 13.3059C36.6373 12.0099 43.1435 11.1505 49.6861 10.7336C57.1616 10.242 63.2988 10.7336 68.0517 12.0598C80.5339 15.4438 83.1219 24.3079 75.8156 38.6519C74.9391 40.3649 73.8835 41.9819 72.6662 43.4765C83.0334 44.8407 89.9628 50.1531 93.4545 59.4134ZM39.9726 47.9466C42.8381 47.3507 45.4392 45.8697 47.4019 43.7165C48.1633 42.9065 48.7422 41.9454 49.1002 40.8968C49.4582 39.8482 49.5871 38.7362 49.4785 37.6344C49.345 36.5752 48.9311 35.5698 48.2786 34.7204C47.6262 33.871 46.7585 33.2079 45.7638 32.7985C43.2258 31.6552 39.9265 31.4608 35.7504 32.3526L39.9726 47.9466ZM61.0723 80.5522C62.1776 79.5919 63.0828 78.4268 63.7372 77.1225C64.3495 75.8049 64.4117 74.301 63.9102 72.9382C62.7566 70.0229 59.9303 68.1708 55.6272 67.462C53.7886 67.1757 51.923 67.099 50.0668 67.2333C48.544 67.2333 46.9174 67.4162 45.1524 67.6449C48.048 78.5401 49.5477 83.902 49.5477 83.902C49.5477 83.902 50.5513 84.0392 52.5932 83.7419C53.3085 83.6162 54.0353 83.5476 54.7505 83.4218C55.1708 83.3591 55.5868 83.2713 55.9964 83.1589C57.6116 82.8176 59.1292 82.1222 60.4378 81.1239L61.0723 80.5522Z" fill="#FFCE07"/>
<path d="M104.577 92.8767L94.1025 7.30404L127.811 4.27441L134.871 89.7328L104.577 92.8767Z" fill="#FFCE07"/>
<path d="M225.464 86.28L145.472 87.549L175.466 34.7191L142.242 37.5544L138.654 5.54326L223.399 0.444336L198.135 54.5089L224.875 52.8512L225.464 86.28Z" fill="#FFCE07"/>
<path d="M314.197 92.1569L234.598 84.8515L270.095 35.5429L236.743 34.8112V2.53711L321.569 6.59567L290.491 57.6077L317.255 58.8196L314.197 92.1569Z" fill="#FFCE07"/>
<path d="M364.234 102.195C357.643 101.122 351.335 98.751 345.684 95.2209C340.424 91.9482 335.894 87.6455 332.371 82.5765C328.8 77.434 326.388 71.5889 325.301 65.4395C324.214 59.2901 324.477 52.9807 326.073 46.9412C327.678 40.5365 330.617 34.5354 334.702 29.3236C338.7 24.0814 343.629 19.6065 349.249 16.119C360.749 8.70391 374.658 5.88501 388.172 8.23054C394.777 9.29271 401.098 11.6647 406.757 15.2044C412.037 18.466 416.571 22.7844 420.07 27.8831C423.556 32.9087 425.916 38.6156 426.991 44.6204C428.158 50.8935 427.926 57.3437 426.311 63.5184C424.691 69.9089 421.77 75.9041 417.728 81.136C413.706 86.3508 408.775 90.811 403.169 94.3063C391.66 101.71 377.752 104.528 364.234 102.195V102.195ZM356.69 52.3488C356.036 54.7424 355.915 57.2485 356.338 59.6928C356.76 62.1371 357.715 64.4608 359.135 66.5023C360.602 68.5908 362.485 70.3599 364.667 71.7007C366.849 73.0416 369.285 73.9259 371.825 74.2993C377.21 75.2311 382.751 74.1035 387.33 71.1439C389.609 69.8153 391.599 68.0504 393.184 65.9522C394.768 63.8541 395.915 61.4644 396.559 58.9225C397.222 56.5231 397.336 54.0074 396.893 51.5589C396.45 49.1103 395.461 46.7906 393.998 44.769C392.563 42.6502 390.69 40.8588 388.501 39.5143C386.313 38.1698 383.861 37.3031 381.308 36.972C375.925 36.0529 370.39 37.1753 365.803 40.1159C361.253 42.8395 357.977 47.2377 356.69 52.3488V52.3488Z" fill="#FFCE07"/>
<g style="mix-blend-mode:multiply">
<path style="mix-blend-mode:multiply" d="M93.4545 59.4134C96.8346 68.2508 96.4885 76.1621 92.3009 83.1817C88.4555 89.7669 82.1144 94.3399 73.2776 96.9008C69.2977 98.0441 64.5563 99.1873 59.1804 100.331L52.051 101.748L44.9217 103.12H44.8524L23.2797 107.43L0.749512 20.0969L30.213 13.3059C36.6373 12.0099 43.1435 11.1505 49.6861 10.7336C57.1616 10.242 63.2988 10.7336 68.0517 12.0598C80.5339 15.4438 83.1219 24.3079 75.8156 38.6519C74.9391 40.3649 73.8835 41.9819 72.6662 43.4765C83.0334 44.8407 89.9628 50.1531 93.4545 59.4134ZM39.9726 47.9466C42.8381 47.3507 45.4392 45.8697 47.4019 43.7165C48.1633 42.9065 48.7422 41.9454 49.1002 40.8968C49.4582 39.8482 49.5871 38.7362 49.4785 37.6344C49.345 36.5752 48.9311 35.5698 48.2786 34.7204C47.6262 33.871 46.7585 33.2079 45.7638 32.7985C43.2258 31.6552 39.9265 31.4608 35.7504 32.3526L39.9726 47.9466ZM61.0723 80.5522C62.1776 79.5919 63.0828 78.4268 63.7372 77.1225C64.3495 75.8049 64.4117 74.301 63.9102 72.9382C62.7566 70.0229 59.9303 68.1708 55.6272 67.462C53.7886 67.1757 51.923 67.099 50.0668 67.2333C48.544 67.2333 46.9174 67.4162 45.1524 67.6449C48.048 78.5401 49.5477 83.902 49.5477 83.902C49.5477 83.902 50.5513 84.0392 52.5932 83.7419C53.3085 83.6162 54.0353 83.5476 54.7505 83.4218C55.1708 83.3591 55.5868 83.2713 55.9964 83.1589C57.6116 82.8176 59.1292 82.1222 60.4378 81.1239L61.0723 80.5522Z" fill="url(#paint9_linear)"/>
<g style="mix-blend-mode:multiply">
<path d="M104.577 92.8767L94.1025 7.30404L127.811 4.27441L134.871 89.7328L104.577 92.8767Z" fill="url(#paint10_linear)" style="mix-blend-mode:multiply"/>
<path d="M104.577 92.8767L94.1025 7.30404L127.811 4.27441L134.871 89.7328L104.577 92.8767Z" fill="url(#paint11_linear)" style="mix-blend-mode:multiply"/>
</g>
<g style="mix-blend-mode:multiply">
<path d="M225.464 86.28L145.472 87.549L175.466 34.7191L142.242 37.5544L138.654 5.54326L223.399 0.444336L198.135 54.5089L224.875 52.8512L225.464 86.28Z" fill="url(#paint12_linear)" style="mix-blend-mode:multiply"/>
<path d="M225.464 86.28L145.472 87.549L175.466 34.7191L142.242 37.5544L138.654 5.54326L223.399 0.444336L198.135 54.5089L224.875 52.8512L225.464 86.28Z" fill="url(#paint13_linear)" style="mix-blend-mode:multiply"/>
</g>
<g style="mix-blend-mode:multiply">
<path d="M314.197 92.1569L234.598 84.8515L270.095 35.5429L236.743 34.8112V2.53711L321.569 6.59567L290.491 57.6077L317.255 58.8196L314.197 92.1569Z" fill="url(#paint14_linear)" style="mix-blend-mode:multiply"/>
<path d="M314.197 92.1569L234.598 84.8515L270.095 35.5429L236.743 34.8112V2.53711L321.569 6.59567L290.491 57.6077L317.255 58.8196L314.197 92.1569Z" fill="url(#paint15_linear)" style="mix-blend-mode:multiply"/>
</g>
<g style="mix-blend-mode:multiply">
<path d="M364.234 102.195C357.643 101.122 351.335 98.751 345.684 95.2209C340.424 91.9482 335.894 87.6455 332.371 82.5765C328.8 77.434 326.388 71.5889 325.301 65.4395C324.214 59.2901 324.477 52.9807 326.073 46.9412C327.678 40.5365 330.617 34.5354 334.702 29.3236C338.7 24.0814 343.629 19.6065 349.249 16.119C360.749 8.70391 374.658 5.88501 388.172 8.23054C394.777 9.29271 401.098 11.6647 406.757 15.2044C412.037 18.466 416.571 22.7844 420.07 27.8831C423.556 32.9087 425.916 38.6156 426.991 44.6204C428.158 50.8935 427.926 57.3437 426.311 63.5184C424.691 69.9089 421.77 75.9041 417.728 81.136C413.706 86.3508 408.775 90.811 403.169 94.3063C391.66 101.71 377.752 104.528 364.234 102.195V102.195ZM356.69 52.3488C356.036 54.7424 355.915 57.2485 356.338 59.6928C356.76 62.1371 357.715 64.4608 359.135 66.5023C360.602 68.5908 362.485 70.3599 364.667 71.7007C366.849 73.0416 369.285 73.9259 371.825 74.2993C377.21 75.2311 382.751 74.1035 387.33 71.1439C389.609 69.8153 391.599 68.0504 393.184 65.9522C394.768 63.8541 395.915 61.4644 396.559 58.9225C397.222 56.5231 397.336 54.0074 396.893 51.5589C396.45 49.1103 395.461 46.7906 393.998 44.769C392.563 42.6502 390.69 40.8588 388.501 39.5143C386.313 38.1698 383.861 37.3031 381.308 36.972C375.925 36.0529 370.39 37.1753 365.803 40.1159C361.253 42.8395 357.977 47.2377 356.69 52.3488V52.3488Z" fill="url(#paint16_linear)" style="mix-blend-mode:multiply"/>
<path d="M364.234 102.195C357.643 101.122 351.335 98.751 345.684 95.2209C340.424 91.9482 335.894 87.6455 332.371 82.5765C328.8 77.434 326.388 71.5889 325.301 65.4395C324.214 59.2901 324.477 52.9807 326.073 46.9412C327.678 40.5365 330.617 34.5354 334.702 29.3236C338.7 24.0814 343.629 19.6065 349.249 16.119C360.749 8.70391 374.658 5.88501 388.172 8.23054C394.777 9.29271 401.098 11.6647 406.757 15.2044C412.037 18.466 416.571 22.7844 420.07 27.8831C423.556 32.9087 425.916 38.6156 426.991 44.6204C428.158 50.8935 427.926 57.3437 426.311 63.5184C424.691 69.9089 421.77 75.9041 417.728 81.136C413.706 86.3508 408.775 90.811 403.169 94.3063C391.66 101.71 377.752 104.528 364.234 102.195V102.195ZM356.69 52.3488C356.036 54.7424 355.915 57.2485 356.338 59.6928C356.76 62.1371 357.715 64.4608 359.135 66.5023C360.602 68.5908 362.485 70.3599 364.667 71.7007C366.849 73.0416 369.285 73.9259 371.825 74.2993C377.21 75.2311 382.751 74.1035 387.33 71.1439C389.609 69.8153 391.599 68.0504 393.184 65.9522C394.768 63.8541 395.915 61.4644 396.559 58.9225C397.222 56.5231 397.336 54.0074 396.893 51.5589C396.45 49.1103 395.461 46.7906 393.998 44.769C392.563 42.6502 390.69 40.8588 388.501 39.5143C386.313 38.1698 383.861 37.3031 381.308 36.972C375.925 36.0529 370.39 37.1753 365.803 40.1159C361.253 42.8395 357.977 47.2377 356.69 52.3488V52.3488Z" fill="url(#paint17_linear)" style="mix-blend-mode:multiply"/>
</g>
</g>
<path d="M358.187 132.136L362.271 140.333C362.298 140.386 362.337 140.433 362.385 140.468C362.433 140.504 362.489 140.528 362.548 140.539L371.673 141.854C371.74 141.864 371.803 141.893 371.855 141.936C371.906 141.979 371.945 142.036 371.967 142.1C371.988 142.164 371.991 142.232 371.976 142.298C371.961 142.363 371.928 142.423 371.88 142.471L365.293 148.851C365.251 148.892 365.22 148.943 365.202 148.998C365.184 149.054 365.18 149.113 365.189 149.171L366.747 158.18C366.761 158.247 366.755 158.316 366.73 158.38C366.704 158.444 366.661 158.499 366.605 158.539C366.549 158.579 366.482 158.602 366.413 158.605C366.344 158.608 366.276 158.591 366.216 158.557L358.06 154.304C358.007 154.276 357.947 154.261 357.887 154.261C357.827 154.261 357.767 154.276 357.714 154.304L349.546 158.557C349.487 158.591 349.418 158.608 349.349 158.605C349.28 158.602 349.214 158.579 349.157 158.539C349.101 158.499 349.058 158.444 349.033 158.38C349.008 158.316 349.002 158.247 349.016 158.18L350.585 149.171C350.592 149.112 350.585 149.053 350.565 148.997C350.545 148.942 350.512 148.891 350.469 148.851L343.87 142.471C343.819 142.426 343.781 142.367 343.763 142.301C343.745 142.235 343.746 142.165 343.767 142.1C343.787 142.034 343.827 141.976 343.88 141.933C343.933 141.889 343.998 141.862 344.067 141.854L353.203 140.539C353.262 140.528 353.318 140.504 353.366 140.468C353.414 140.433 353.453 140.386 353.48 140.333L357.564 132.136C357.595 132.082 357.64 132.036 357.695 132.004C357.75 131.973 357.812 131.956 357.875 131.956C357.939 131.956 358.001 131.973 358.056 132.004C358.111 132.036 358.156 132.082 358.187 132.136V132.136Z" fill="white"/>
<path d="M56.5024 132.135L60.5862 140.332C60.6134 140.385 60.6525 140.431 60.7005 140.467C60.7485 140.503 60.8041 140.527 60.863 140.538L69.9651 141.853C70.0312 141.865 70.0928 141.894 70.1432 141.938C70.1936 141.983 70.2309 142.039 70.2511 142.103C70.2712 142.166 70.2735 142.234 70.2577 142.299C70.2419 142.364 70.2085 142.423 70.1612 142.47L63.551 148.85C63.5113 148.892 63.4814 148.943 63.4635 148.998C63.4456 149.054 63.44 149.112 63.4472 149.17L65.0391 158.213C65.0513 158.278 65.0446 158.346 65.0198 158.408C64.995 158.47 64.9531 158.523 64.8989 158.563C64.8447 158.602 64.7804 158.626 64.7134 158.63C64.6464 158.635 64.5794 158.621 64.52 158.59L56.3524 154.337C56.2991 154.309 56.2397 154.295 56.1793 154.295C56.119 154.295 56.0596 154.309 56.0063 154.337L47.8387 158.59C47.7793 158.621 47.7123 158.635 47.6452 158.63C47.5782 158.626 47.514 158.602 47.4598 158.563C47.4056 158.523 47.3637 158.47 47.3389 158.408C47.3141 158.346 47.3074 158.278 47.3195 158.213L48.8769 149.204C48.8867 149.146 48.8824 149.087 48.8643 149.031C48.8462 148.976 48.815 148.925 48.7731 148.884L42.1629 142.504C42.1154 142.456 42.0822 142.396 42.067 142.331C42.0518 142.265 42.0551 142.197 42.0766 142.133C42.098 142.069 42.1368 142.013 42.1887 141.969C42.2405 141.926 42.3034 141.897 42.3705 141.887L51.5072 140.538C51.5661 140.527 51.6218 140.503 51.6698 140.467C51.7178 140.431 51.7569 140.385 51.784 140.332L55.8679 132.135C55.8981 132.078 55.9436 132.029 55.9996 131.996C56.0555 131.962 56.1197 131.944 56.1851 131.944C56.2505 131.944 56.3147 131.962 56.3707 131.996C56.4266 132.029 56.4722 132.078 56.5024 132.135V132.135Z" fill="white"/>
<defs>
<linearGradient id="paint0_linear" x1="-14.0861" y1="32.0323" x2="110.014" y2="103.904" gradientUnits="userSpaceOnUse">
<stop stop-color="white"/>
<stop offset="1"/>
</linearGradient>
<linearGradient id="paint1_linear" x1="3410.81" y1="4150.94" x2="4865.89" y2="4150.94" gradientUnits="userSpaceOnUse">
<stop stop-color="white"/>
<stop offset="1"/>
</linearGradient>
<linearGradient id="paint2_linear" x1="87.6534" y1="24.2202" x2="154.061" y2="42.6221" gradientUnits="userSpaceOnUse">
<stop stop-color="white"/>
<stop offset="1"/>
</linearGradient>
<linearGradient id="paint3_linear" x1="10361.4" y1="3852.98" x2="16400" y2="3852.98" gradientUnits="userSpaceOnUse">
<stop stop-color="white"/>
<stop offset="1"/>
</linearGradient>
<linearGradient id="paint4_linear" x1="128.966" y1="14.7362" x2="243.092" y2="74.6792" gradientUnits="userSpaceOnUse">
<stop stop-color="white"/>
<stop offset="1"/>
</linearGradient>
<linearGradient id="paint5_linear" x1="17860.2" y1="4226.53" x2="24417" y2="4226.53" gradientUnits="userSpaceOnUse">
<stop stop-color="white"/>
<stop offset="1"/>
</linearGradient>
<linearGradient id="paint6_linear" x1="221.015" y1="20.6953" x2="336.816" y2="85.1969" gradientUnits="userSpaceOnUse">
<stop stop-color="white"/>
<stop offset="1"/>
</linearGradient>
<linearGradient id="paint7_linear" x1="29274.4" y1="5150.82" x2="38495.7" y2="5150.82" gradientUnits="userSpaceOnUse">
<stop stop-color="white"/>
<stop offset="1"/>
</linearGradient>
<linearGradient id="paint8_linear" x1="308.532" y1="28.7937" x2="436.386" y2="110.372" gradientUnits="userSpaceOnUse">
<stop stop-color="white"/>
<stop offset="1"/>
</linearGradient>
<linearGradient id="paint9_linear" x1="46.1445" y1="18.5992" x2="51.5041" y2="86.7449" gradientUnits="userSpaceOnUse">
<stop stop-color="white"/>
<stop offset="1" stop-color="#FFCE07"/>
</linearGradient>
<linearGradient id="paint10_linear" x1="4014.44" y1="1011.68" x2="4904.5" y2="6172.13" gradientUnits="userSpaceOnUse">
<stop stop-color="white"/>
<stop offset="1" stop-color="#FFCE07"/>
</linearGradient>
<linearGradient id="paint11_linear" x1="113.585" y1="11.6385" x2="123.807" y2="72.6318" gradientUnits="userSpaceOnUse">
<stop stop-color="white"/>
<stop offset="1" stop-color="#FFCE07"/>
</linearGradient>
<linearGradient id="paint12_linear" x1="13734.8" y1="572.722" x2="14148.2" y2="5763.94" gradientUnits="userSpaceOnUse">
<stop stop-color="white"/>
<stop offset="1" stop-color="#FFCE07"/>
</linearGradient>
<linearGradient id="paint13_linear" x1="180.138" y1="7.68393" x2="184.88" y2="68.9636" gradientUnits="userSpaceOnUse">
<stop stop-color="white"/>
<stop offset="1" stop-color="#FFCE07"/>
</linearGradient>
<linearGradient id="paint14_linear" x1="20866" y1="17.7725" x2="21302.6" y2="5357.05" gradientUnits="userSpaceOnUse">
<stop stop-color="white"/>
<stop offset="1" stop-color="#FFCE07"/>
</linearGradient>
<linearGradient id="paint15_linear" x1="276.159" y1="9.98575" x2="281.167" y2="73.0144" gradientUnits="userSpaceOnUse">
<stop stop-color="white"/>
<stop offset="1" stop-color="#FFCE07"/>
</linearGradient>
<linearGradient id="paint16_linear" x1="33425.4" y1="-612.82" x2="33844.9" y2="5088.12" gradientUnits="userSpaceOnUse">
<stop stop-color="white"/>
<stop offset="1" stop-color="#FFCE07"/>
</linearGradient>
<linearGradient id="paint17_linear" x1="373.902" y1="15.3679" x2="378.713" y2="82.6612" gradientUnits="userSpaceOnUse">
<stop stop-color="white"/>
<stop offset="1" stop-color="#FFCE07"/>
</linearGradient>
</defs>
</svg>