<svg width="49" height="49" viewBox="0 0 49 49" fill="none" xmlns="http://www.w3.org/2000/svg">
<path d="M47.9637 22.0309L26.9528 1.01777C26.297 0.365896 25.4099 0 24.4853 0C23.5606 0 22.6735 0.365896 22.0178 1.01777L1.01777 22.0309C0.365896 22.6867 0 23.5737 0 24.4984C0 25.423 0.365896 26.3101 1.01777 26.9659L22.0287 47.979C22.6845 48.6309 23.5716 48.9968 24.4962 48.9968C25.4209 48.9968 26.3079 48.6309 26.9637 47.979L47.9746 26.9659C48.6265 26.3101 48.9924 25.423 48.9924 24.4984C48.9924 23.5737 48.6265 22.6867 47.9746 22.0309H47.9637ZM24.4853 45.4984L3.48527 24.4984L24.4853 3.4984L45.4853 24.4984L24.4853 45.4984Z" fill="white" fill-opacity="0.5"/>
</svg>
