<svg width="46" height="46" viewBox="0 0 46 46" fill="none" xmlns="http://www.w3.org/2000/svg">
<path d="M22.75 0C18.2505 0 13.852 1.33426 10.1108 3.83407C6.36957 6.33387 3.45364 9.88693 1.73175 14.044C0.00985722 18.201 -0.440669 22.7752 0.437145 27.1883C1.31496 31.6014 3.48169 35.655 6.66333 38.8367C9.84497 42.0183 13.8986 44.185 18.3117 45.0629C22.7248 45.9407 27.299 45.4902 31.4561 43.7683C35.6131 42.0464 39.1661 39.1304 41.6659 35.3892C44.1657 31.648 45.5 27.2495 45.5 22.75C45.4936 16.7183 43.0947 10.9354 38.8297 6.67035C34.5646 2.40528 28.7817 0.0063696 22.75 0ZM22.75 33.25C20.6733 33.25 18.6432 32.6342 16.9165 31.4804C15.1898 30.3267 13.844 28.6868 13.0493 26.7682C12.2546 24.8496 12.0466 22.7384 12.4518 20.7016C12.8569 18.6647 13.8569 16.7938 15.3254 15.3254C16.7938 13.8569 18.6648 12.8569 20.7016 12.4518C22.7384 12.0466 24.8496 12.2545 26.7682 13.0493C28.6868 13.844 30.3267 15.1898 31.4804 16.9165C32.6342 18.6432 33.25 20.6733 33.25 22.75C33.2471 25.5339 32.1399 28.2029 30.1714 30.1714C28.2029 32.1399 25.5339 33.2471 22.75 33.25ZM31.3272 11.6966C29.3494 10.1506 26.9905 9.16805 24.5 8.85281V3.58094C28.3836 3.93078 32.068 5.45704 35.0613 7.95594L31.3272 11.6966ZM21 8.86375C18.5096 9.17898 16.1506 10.1616 14.1728 11.7075L10.4388 7.9625C13.4321 5.46361 17.1165 3.93734 21 3.5875V8.86375ZM11.6966 14.1728C10.1506 16.1506 9.16806 18.5096 8.85282 21H3.58095C3.93079 17.1165 5.45705 13.4321 7.95595 10.4387L11.6966 14.1728ZM8.86376 24.5C9.17899 26.9904 10.1616 29.3494 11.7075 31.3272L7.96251 35.0612C5.46362 32.0679 3.93735 28.3835 3.58751 24.5H8.86376ZM14.1728 33.8034C16.1518 35.3455 18.5106 36.3242 21 36.6362V41.9191C17.1165 41.5692 13.4321 40.043 10.4388 37.5441L14.1728 33.8034ZM24.5 36.6362C26.9894 36.3242 29.3482 35.3455 31.3272 33.8034L35.0613 37.5375C32.068 40.0364 28.3836 41.5627 24.5 41.9125V36.6362ZM33.8034 31.3272C35.3455 29.3482 36.3242 26.9894 36.6363 24.5H41.9191C41.5692 28.3835 40.043 32.0679 37.5441 35.0612L33.8034 31.3272ZM36.6363 21C36.3242 18.5106 35.3455 16.1518 33.8034 14.1728L37.5375 10.4387C40.0364 13.4321 41.5627 17.1165 41.9125 21H36.6363Z" fill="white" fill-opacity="0.5"/>
</svg>
